<svg xmlns="http://www.w3.org/2000/svg" width="24" height="24" viewBox="0 0 24 24">
  <g fill="none" stroke="currentColor" stroke-width="2" stroke-linecap="round" stroke-linejoin="round">
    <circle cx="12" cy="12" r="3"/>
    <path d="M19.4 15a1.65 1.65 0 0 0 .33 1.82l.06.06a2 2 0 1 1-2.83 2.83l-.06-.06a1.65 1.65 0 0 0-1.82-.33 1.65 1.65 0 0 0-1 1.51V21a2 2 0 1 1-4 0v-.09a1.65 1.65 0 0 0-1-1.51 1.65 1.65 0 0 0-1.82.33l-.06.06a2 2 0 1 1-2.83-2.83l.06-.06a1.65 1.65 0 0 0 .33-1.82 1.65 1.65 0 0 0-1.51-1H3a2 2 0 1 1 0-4h.09a1.65 1.65 0 0 0 1.51-1 1.65 1.65 0 0 0-.33-1.82l-.06-.06a2 2 0 1 1 2.83-2.83l.06.06a1.65 1.65 0 0 0 1.82.33h0A1.65 1.65 0 0 0 10.91 3H11a2 2 0 1 1 4 0v.09c0 .65.38 1.24.97 1.51h0c.6.27 1.3.15 1.82-.33l.06-.06a2 2 0 1 1 2.83 2.83l-.06.06c-.48.52-.6 1.22-.33 1.82h0c.27.59.86.97 1.51.97H21a2 2 0 1 1 0 4h-.09c-.65 0-1.24.38-1.51.97z"/>
  </g>
</svg>